<?xml version="1.0" encoding="utf-8"?>
<!-- Generator: Adobe Illustrator 24.0.1, SVG Export Plug-In . SVG Version: 6.00 Build 0)  -->
<svg version="1.1" id="Camada_1" xmlns="http://www.w3.org/2000/svg" xmlns:xlink="http://www.w3.org/1999/xlink" x="0px" y="0px"
	 viewBox="0 0 1920 388" style="enable-background:new 0 0 1920 388;" xml:space="preserve">
<style type="text/css">
	.st0{fill:#fff;}
	.st1{fill:#fff;}
	.st2{fill:#fff;}
</style>
<g>
	<g>
		<path class="st0" d="M1195.5,115.9h-9.1l-7.5-19.2h-27.4l-7.4,19.2h-9l26-66.4h8.5L1195.5,115.9z M1175.9,88.7l-10.7-27l-10.6,27
			H1175.9z"/>
		<path class="st0" d="M1250.7,79.6v36.3h-7.5v-7c-4.2,5.3-9.5,7.9-15.9,7.9c-9.1,0-16.2-3.8-21.1-11.4c-3.6-5.4-5.3-12.9-5.3-22.6
			c0-9.7,1.8-17.2,5.3-22.6c4.9-7.6,12.1-11.4,21.5-11.4c4.4,0,8.2,0.9,11.4,2.6c3.2,1.7,6.7,4.9,10.5,9.4l-6.4,5.2
			c-3-3.6-5.6-6-7.8-7.2c-2.1-1.2-4.7-1.8-7.8-1.8c-6.3,0-11.2,2.5-14.5,7.6c-2.7,4.1-4,10.1-4,18.2c0,8.1,1.3,14.1,4,18.2
			c3.3,5.1,8,7.6,14.1,7.6c4.9,0,8.8-2.3,11.6-6.8c2-3.2,3.2-7.8,3.4-13.9h-16.5v-8.2H1250.7z"/>
		<path class="st0" d="M1307.1,115.9H1264V49.5h43.2v8.2h-35v19.6h30.6v8.2h-30.6v22.3h35V115.9z M1300.9,42.2h-9.9l-6-9.8l-6,9.8
			h-9.9l11-13.9h9.7L1300.9,42.2z"/>
		<path class="st0" d="M1365.6,115.9h-7.9l-30.3-49.7v49.7h-8.4V49.5h7.9l30.5,49.8V49.5h8.2V115.9z"/>
		<path class="st0" d="M1425.7,60.6l-6.5,5.2c-3-3.6-5.6-6-7.8-7.2c-2.1-1.2-4.7-1.8-7.7-1.8c-6.3,0-11.2,2.5-14.5,7.6
			c-2.7,4.1-4,10.1-4,18.2c0,8.1,1.3,14.1,4,18.2c3.3,5.1,8.1,7.6,14.5,7.6c3,0,5.5-0.6,7.7-1.8c2.1-1.2,4.7-3.6,7.8-7.1l6.4,5.2
			c-3.7,4.5-7.2,7.6-10.4,9.4c-3.2,1.7-7,2.6-11.4,2.6c-9.4,0-16.5-3.8-21.5-11.4c-3.6-5.4-5.3-12.9-5.3-22.6
			c0-9.7,1.8-17.2,5.3-22.6c4.9-7.6,12.1-11.4,21.5-11.4c4.4,0,8.2,0.9,11.4,2.6C1418.4,53,1421.9,56.1,1425.7,60.6z"/>
		<path class="st0" d="M1446.3,115.9h-8.7V49.5h8.7V115.9z"/>
		<path class="st0" d="M1515.2,115.9h-9.1l-7.5-19.2h-27.4l-7.4,19.2h-9l26-66.4h8.5L1515.2,115.9z M1495.6,88.7l-10.7-27l-10.6,27
			H1495.6z"/>
		<path class="st0" d="M1597.4,68.4c0,7.3-2.7,12.6-8,15.9c-3.4,2.1-8.3,3.1-14.5,3.1h-16.5v28.4h-8.4V49.5h24.9
			c6.3,0,11.1,1,14.5,3.1C1594.7,55.9,1597.4,61.2,1597.4,68.4z M1589,68.4c0-4.2-1.4-7.1-4.1-8.8c-2-1.3-5.4-1.9-10.1-1.9h-16.5
			v21.6h16.5c4.7,0,8-0.7,10.1-2C1587.7,75.6,1589,72.7,1589,68.4z"/>
		<path class="st0" d="M1653.1,115.9h-9.1l-7.5-19.2h-27.4l-7.4,19.2h-9l26-66.4h8.5L1653.1,115.9z M1633.5,88.7l-10.7-27l-10.6,27
			H1633.5z"/>
		<path class="st0" d="M1710,115.9h-9.7L1686,92.6c-1.3-2.2-2.4-3.7-3.1-4.5c-1.4-1.3-3-2-4.9-2h-8.4v29.8h-8.4V49.5h23.3
			c6,0,10.7,1,14,3c5.1,3.2,7.7,8.3,7.8,15.3c0,7-2.6,12.1-7.8,15.2c-2,1.2-4.3,2.1-7,2.6c0.5,0.7,1.1,1.6,1.7,2.7L1710,115.9z
			 M1697.9,67.9c0-4-1.3-6.8-3.9-8.4c-1.9-1.2-5.1-1.8-9.6-1.8h-14.8v20.3h14.9c4.4,0,7.6-0.6,9.5-1.8
			C1696.6,74.5,1697.9,71.8,1697.9,67.9z"/>
		<path class="st0" d="M1773.2,115.9h-9.1l-7.5-19.2h-27.4l-7.4,19.2h-9l26-66.4h8.5L1773.2,115.9z M1753.6,88.7l-10.7-27l-10.6,27
			H1753.6z"/>
		<path class="st0" d="M1862.1,115.9h-9.1l-7.5-19.2h-27.4l-7.4,19.2h-9l26-66.4h8.5L1862.1,115.9z M1842.5,88.7l-10.7-27l-10.6,27
			H1842.5z"/>
	</g>
	<g>
		<path class="st0" d="M1197.2,219.3h-8.4v-42.8l-16,42.8h-7.3l-15.9-42.5v42.5h-8.4v-66.4h6.9l21,53.9l20.1-53.9h7.9V219.3z"/>
		<path class="st0" d="M1266.2,186.1c0,9.7-1.8,17.2-5.3,22.6c-4.9,7.6-12.1,11.4-21.6,11.4c-9.4,0-16.6-3.8-21.6-11.4
			c-3.6-5.4-5.3-12.9-5.3-22.6c0-9.7,1.8-17.2,5.3-22.6c5-7.6,12.2-11.4,21.6-11.4c9.4,0,16.6,3.8,21.6,11.4
			C1264.4,168.8,1266.2,176.4,1266.2,186.1z M1257.8,186.1c0-8.1-1.3-14.1-4-18.2c-3.3-5.1-8.1-7.6-14.6-7.6
			c-6.4,0-11.3,2.5-14.5,7.6c-2.7,4.1-4,10.1-4,18.2c0,8.1,1.3,14.1,4,18.2c3.3,5.1,8.1,7.6,14.5,7.6c6.4,0,11.3-2.5,14.6-7.6
			C1256.5,200.2,1257.8,194.1,1257.8,186.1z"/>
		<path class="st0" d="M1329.7,186.1c0,6.1-0.3,11-0.8,14.7c-1,7.4-4.1,12.4-9.4,15.2c-4,2.2-9.9,3.2-17.8,3.2h-20.4v-66.4h20.4
			c7.9,0,13.8,1,17.8,3.1c5.3,2.9,8.5,8,9.4,15.3C1329.4,175.1,1329.7,180,1329.7,186.1z M1321.3,186.1c0-5.8-0.2-10.3-0.7-13.7
			c-0.6-4.7-2.4-7.8-5.3-9.2c-2.9-1.4-7.4-2.1-13.6-2.1h-12.1V211h12.1c6.2,0,10.8-0.7,13.6-2.1c2.9-1.4,4.6-4.4,5.3-9.1
			C1321.1,196.3,1321.3,191.8,1321.3,186.1z"/>
		<path class="st0" d="M1388.9,219.3h-43.2v-66.4h43.2v8.2h-35v19.6h30.6v8.2h-30.6v22.3h35V219.3z"/>
		<path class="st0" d="M1453.3,219.3h-9.7l-14.3-23.3c-1.3-2.2-2.4-3.7-3.1-4.5c-1.4-1.3-3-2-4.9-2h-8.4v29.8h-8.4v-66.4h23.3
			c6,0,10.7,1,14,3c5.1,3.2,7.7,8.3,7.8,15.3c0,7-2.6,12.1-7.8,15.2c-2,1.2-4.3,2.1-7,2.6c0.5,0.7,1.1,1.6,1.7,2.7L1453.3,219.3z
			 M1441.2,171.2c0-4-1.3-6.8-3.9-8.4c-1.9-1.2-5.1-1.8-9.6-1.8h-14.8v20.3h14.9c4.4,0,7.6-0.6,9.5-1.8
			C1439.9,177.9,1441.2,175.2,1441.2,171.2z"/>
		<path class="st0" d="M1512.7,219.3h-7.9l-30.3-49.7v49.7h-8.4v-66.4h7.9l30.5,49.8v-49.8h8.2V219.3z"/>
		<path class="st0" d="M1539.8,219.3h-8.7v-66.4h8.7V219.3z"/>
		<path class="st0" d="M1602.1,219.3h-46.7v-6.5l35.7-51.7h-32.3v-8.2h43.4v6.9l-35.5,51.3h35.5V219.3z"/>
		<path class="st0" d="M1672.3,219.3h-9.1l-7.5-19.2h-27.4l-7.4,19.2h-9l26-66.4h8.5L1672.3,219.3z M1652.7,192.1l-10.7-27l-10.6,27
			H1652.7z"/>
		<path class="st0" d="M1730,164l-6.5,5.2c-3-3.6-5.6-6-7.8-7.2c-2.1-1.2-4.7-1.8-7.7-1.8c-6.3,0-11.2,2.5-14.5,7.6
			c-2.7,4.1-4,10.1-4,18.2c0,8.1,1.3,14.1,4,18.2c3.3,5.1,8.1,7.6,14.5,7.6c3,0,5.5-0.6,7.7-1.8c2.1-1.2,4.7-3.6,7.8-7.1l6.4,5.2
			c-5.8,6.8-11.5,10.7-17.2,11.6l2.1,5.8l-6.5,12.4h-9.2l8.6-12.6l-2-5.3c-8.3-0.7-14.7-4.5-19.1-11.3c-3.6-5.4-5.3-12.9-5.3-22.6
			c0-9.7,1.8-17.2,5.3-22.6c4.9-7.6,12.1-11.4,21.5-11.4c4.4,0,8.2,0.9,11.4,2.6C1722.6,156.4,1726.2,159.5,1730,164z"/>
		<path class="st0" d="M1799.3,219.3h-9.1l-7.5-19.2h-27.4l-7.4,19.2h-9l26-66.4h8.5L1799.3,219.3z M1785.9,141.1l-1.1,1.4
			c-2.3,3.1-5.1,4.7-8.4,4.7c-1.8,0-3.9-0.5-6.3-1.5c-3.2-1.4-5.2-2.2-5.8-2.3c-0.6-0.2-1.2-0.2-1.6-0.2c-1,0-2,0.6-2.9,1.7
			c-0.2,0.3-0.6,0.9-1.2,1.7l-5.4-4.4c3.2-4.1,6.4-6.1,9.7-6.1c2.2,0,5,0.8,8.3,2.5c2.3,1.1,4,1.6,5.2,1.6c0.9,0,1.7-0.4,2.5-1.1
			c0.6-0.8,1.1-1.5,1.7-2.3L1785.9,141.1z M1779.7,192.1l-10.7-27l-10.6,27H1779.7z"/>
		<path class="st0" d="M1862,186.1c0,9.7-1.8,17.2-5.3,22.6c-4.9,7.6-12.1,11.4-21.6,11.4c-9.4,0-16.6-3.8-21.6-11.4
			c-3.6-5.4-5.3-12.9-5.3-22.6c0-9.7,1.8-17.2,5.3-22.6c5-7.6,12.2-11.4,21.6-11.4c9.4,0,16.6,3.8,21.6,11.4
			C1860.2,168.8,1862,176.4,1862,186.1z M1853.6,186.1c0-8.1-1.3-14.1-4-18.2c-3.3-5.1-8.1-7.6-14.6-7.6s-11.3,2.5-14.5,7.6
			c-2.7,4.1-4,10.1-4,18.2c0,8.1,1.3,14.1,4,18.2c3.3,5.1,8.1,7.6,14.5,7.6s11.3-2.5,14.6-7.6
			C1852.3,200.2,1853.6,194.1,1853.6,186.1z"/>
	</g>
	<g>
		<path class="st0" d="M1195.5,322.8h-9.1l-7.5-19.2h-27.4l-7.4,19.2h-9l26-66.4h8.5L1195.5,322.8z M1175.9,295.6l-10.7-27l-10.6,27
			H1175.9z"/>
		<path class="st0" d="M1252.3,289.6c0,6.1-0.3,11-0.8,14.7c-1,7.4-4.1,12.4-9.4,15.2c-4,2.2-9.9,3.2-17.8,3.2h-20.4v-66.4h20.4
			c7.9,0,13.8,1,17.8,3.1c5.3,2.9,8.5,8,9.4,15.3C1252,278.6,1252.3,283.6,1252.3,289.6z M1243.9,289.6c0-5.8-0.2-10.3-0.7-13.7
			c-0.6-4.7-2.4-7.8-5.3-9.2c-2.9-1.4-7.4-2.1-13.6-2.1h-12.1v49.9h12.1c6.2,0,10.8-0.7,13.6-2.1c2.9-1.4,4.6-4.4,5.3-9.1
			C1243.7,299.9,1243.9,295.3,1243.9,289.6z"/>
		<path class="st0" d="M1320.8,322.8h-8.4V280l-16,42.8h-7.3l-15.9-42.5v42.5h-8.4v-66.4h6.9l21,53.9l20.1-53.9h7.9V322.8z"/>
		<path class="st0" d="M1344.5,322.8h-8.7v-66.4h8.7V322.8z"/>
		<path class="st0" d="M1406.1,322.8h-7.9l-30.3-49.7v49.7h-8.4v-66.4h7.9l30.5,49.8v-49.8h8.2V322.8z"/>
		<path class="st0" d="M1429.8,322.8h-8.7v-66.4h8.7V322.8z"/>
		<path class="st0" d="M1492.2,303.7c0,3.5-1,6.9-2.9,10.1c-4.1,6.7-11.1,10.1-20.9,10.1c-15.2,0-23.9-6.9-26.3-20.6l8.3-1.4
			c1,6,3.6,10,7.9,11.9c2.9,1.3,6.2,1.9,10.2,1.9c6.7,0,11.3-2,13.8-6.1c1.1-1.8,1.7-3.8,1.7-5.8c0-4-2.1-7-6.4-9
			c-2-0.9-6.1-2.2-12.3-3.6c-7.9-1.9-13.2-4.1-15.8-6.5c-3.2-3-4.8-6.8-4.8-11.3c0-5,2-9.2,6.1-12.6c3.7-3.1,8.9-4.7,15.7-4.7
			c10.7,0,18.1,3.8,22.3,11.3c0.3,0.6,1,1.8,1.9,3.7l-7.6,3.5c-2-4.1-4.1-6.8-6.3-8c-2.7-1.4-6.1-2.2-10.4-2.2
			c-4.8,0-8.2,0.9-10.3,2.6c-2.1,1.7-3.1,3.9-3.1,6.4c0,2.6,0.9,4.5,2.8,5.8c1.8,1.3,5.6,2.6,11.4,4c6.8,1.6,11.4,3,14,4.2
			C1488.5,290.9,1492.2,296.3,1492.2,303.7z"/>
		<path class="st0" d="M1547.6,264.6h-20.3v58.2h-8.4v-58.2h-20.3v-8.2h48.9V264.6z"/>
		<path class="st0" d="M1605.7,322.8h-9.7l-14.3-23.3c-1.3-2.2-2.4-3.7-3.1-4.5c-1.4-1.3-3-2-4.9-2h-8.4v29.8h-8.4v-66.4h23.3
			c6,0,10.7,1,14,3c5.1,3.2,7.7,8.3,7.8,15.3c0,7-2.6,12.1-7.8,15.2c-2,1.2-4.3,2.1-7,2.6c0.5,0.7,1.1,1.6,1.7,2.7L1605.7,322.8z
			 M1593.6,274.8c0-4-1.3-6.8-3.9-8.4c-1.9-1.2-5.1-1.8-9.6-1.8h-14.8v20.3h14.9c4.4,0,7.6-0.6,9.5-1.8
			C1592.3,281.5,1593.6,278.7,1593.6,274.8z"/>
		<path class="st0" d="M1669.2,322.8h-9.1l-7.5-19.2h-27.4l-7.4,19.2h-9l26-66.4h8.5L1669.2,322.8z M1649.6,295.6l-10.7-27l-10.6,27
			H1649.6z"/>
		<path class="st0" d="M1721.2,264.6H1701v58.2h-8.4v-58.2h-20.3v-8.2h48.9V264.6z"/>
		<path class="st0" d="M1739.7,322.8h-8.7v-66.4h8.7V322.8z"/>
		<path class="st0" d="M1801,256.4l-21.8,66.4h-7.5l-21.8-66.4h8.8l16.7,51.3l16.7-51.3H1801z"/>
		<path class="st0" d="M1865,322.8h-9.1l-7.5-19.2H1821l-7.4,19.2h-9l26-66.4h8.5L1865,322.8z M1845.4,295.6l-10.7-27l-10.6,27
			H1845.4z"/>
	</g>
	<g>
		<path class="st0" d="M276.1,276.8c0,11.2,5.6,15.6,14.6,15.6c3.9,0,9.7-0.6,14.7-1.7v31.9c-7.5,2.2-14,5.3-24,5.3
			c-39.4,0-45.7-20.4-47.1-40.6c-17.3,18.8-43.9,42.9-95.6,42.9c-48.6,0-82.8-30.4-82.8-76.2c0-21.9,6.6-73.7,80.4-82.5l73.1-9.2
			c10.8-1.6,23.1-5,23.1-31.5c0-27.6-20.2-43-61.9-43c-50.6,0-57.7,30.8-60.7,51.1H69.1c2-62.9,43.9-87.9,109.1-87.9
			c21.2,0,98,6,98,73.7V276.8 M231.9,188.1c-7.1,5.6-18.3,9.6-73.3,16.6c-21.7,3.1-56.7,9.7-56.7,43.1c0,28.7,14.8,45.9,48.2,45.9
			c41.3,0,81.8-27.1,81.8-62.1V188.1z"/>
		<rect x="1110.5" y="50.1" class="st0" width="2.7" height="274.2"/>
		<path class="st0" d="M1015.1,278.8V95.4L924,140.9h-91h-15h-30.3v45.5H742v92.3h45.5v45.5h31.2h14.2h91.2h17.6h9.8h11.7h6.2h45.6
			h45.2v-45.5H1015.1z M832.9,278.8v-92.3h91l0.1,92.3H832.9z"/>
		<path class="st1" d="M532,134.4h5.9l38.9-38.9v-2.2v2.2l46.7-45.3h-1.3h-45.5v0c-18.4,2.4-33.7,14.3-44.8,31.2L532,134.4"/>
		<polyline class="st0" points="923.9,140.9 1015.1,95.4 924,186.5 		"/>
		<polygon class="st2" points="969.1,95.4 924,140.9 924,186.4 1015.1,95.4 		"/>
		<polygon class="st0" points="667.8,95.4 667.8,50.1 667.5,50.1 622.3,95.3 622.3,324.3 649.6,324.3 667.8,324.3 712.9,324.3 
			712.9,95.4 		"/>
		<path class="st0" d="M532,322.7h-44.7V140.2c0-22.4-8.7-49.1-41.5-49.1c-25.2,0-69.5,16.1-69.5,87.9v143.7h-44.6V58.9h41.9v37.6h1
			c9.6-14.4,32.2-45.2,79.8-45.2c47.4,0,62.6,28.7,70.1,43c2.2-4.6,4.8-9.1,7.5-13.2v53.3V322.7z"/>
		<polygon class="st2" points="622.3,95.4 576.8,95.4 576.8,134.4 532,134.4 576.8,93.2 623.6,50.1 636.3,50.1 667.8,50.1 		"/>
		<rect x="787.5" y="50.1" class="st2" width="137.5" height="45.4"/>
		<polygon class="st1" points="923.9,95.4 923.9,140.9 969.8,95.4 969.5,95.4 969.5,50.1 951.3,50.1 923.9,50.1 		"/>
	</g>
</g>
</svg>
